<svg xmlns="http://www.w3.org/2000/svg" viewBox="0 0 44.74 38.25"><defs><style>.cls-1{fill:#5fb131;fill-rule:evenodd;}</style></defs><title>logo_icon</title><g id="レイヤー_2" data-name="レイヤー 2"><g id="レイヤー_1-2" data-name="レイヤー 1"><path class="cls-1" d="M22.37,38.25a6.68,6.68,0,0,1-4.67-1.91L1.94,20.78a6.45,6.45,0,0,1,0-9.22l9.77-9.65a6.68,6.68,0,0,1,9.35,0l3.65,3.6L20,10.12l-3.64-3.6L6.6,16.17,22.37,31.73,38.14,16.17,31.86,10,17.41,24.24l-4.67-4.61L27.19,5.36a6.69,6.69,0,0,1,9.34,0l6.28,6.2a6.47,6.47,0,0,1,0,9.22L27,36.34a6.64,6.64,0,0,1-4.66,1.91Z"/></g></g></svg>