<svg xmlns="http://www.w3.org/2000/svg" viewBox="0 0 290.23 52.08"><defs><style>.cls-1{fill:#fff;fill-rule:evenodd;}</style></defs><title>logo</title><g id="レイヤー_2" data-name="レイヤー 2"><g id="レイヤー_1-2" data-name="レイヤー 1"><path class="cls-1" d="M30.46,52.08a9,9,0,0,1-6.35-2.59L2.64,28.3a8.79,8.79,0,0,1,0-12.56L16,2.6a9.08,9.08,0,0,1,12.72,0l5,4.9-6.37,6.28-5-4.9L9,22,30.46,43.21,51.94,22l-8.55-8.44L23.7,33l-6.36-6.28L37,7.3a9.12,9.12,0,0,1,12.73,0l8.54,8.44a8.79,8.79,0,0,1,0,12.56L36.82,49.49a9,9,0,0,1-6.35,2.59Z"/><path class="cls-1" d="M86,37.13a6.55,6.55,0,0,0,2.79-.58A7.08,7.08,0,0,0,91.09,35a7.55,7.55,0,0,0,1.54-2.4,7.74,7.74,0,0,0,.55-2.92,7.55,7.55,0,0,0-.55-2.89,7.88,7.88,0,0,0-1.54-2.37,7.08,7.08,0,0,0-2.3-1.59A6.55,6.55,0,0,0,86,22.21H78.77v7.43a7.55,7.55,0,0,0,.56,2.92A7.22,7.22,0,0,0,80.87,35a7,7,0,0,0,2.31,1.59A6.75,6.75,0,0,0,86,37.13Zm4.66-18.86a11.93,11.93,0,0,1,3.78,2.64A12.74,12.74,0,0,1,97,34.44a12.7,12.7,0,0,1-2.55,4,11.73,11.73,0,0,1-3.78,2.68,11.58,11.58,0,0,1-9.28,0,11.72,11.72,0,0,1-3.83-2.68A12.48,12.48,0,0,1,74,29.64V7.38h4.74v9.91H86A11.34,11.34,0,0,1,90.66,18.27Z"/><path class="cls-1" d="M118.46,37V29.54a7.57,7.57,0,0,0-.56-2.9,7.4,7.4,0,0,0-1.54-2.37,6.93,6.93,0,0,0-2.29-1.59,6.6,6.6,0,0,0-2.8-.58,6.71,6.71,0,0,0-2.81.58,6.91,6.91,0,0,0-2.31,1.59,7.43,7.43,0,0,0-1.55,2.37,7.56,7.56,0,0,0-.55,2.9,7.68,7.68,0,0,0,.55,2.91,7.24,7.24,0,0,0,1.55,2.4,6.94,6.94,0,0,0,2.31,1.6,6.86,6.86,0,0,0,2.81.57Zm-7.19-19.84a11.2,11.2,0,0,1,4.67,1,11.84,11.84,0,0,1,3.77,2.64,12.39,12.39,0,0,1,3.49,8.74V41.93H111.27a11.46,11.46,0,0,1-4.63-1,11.7,11.7,0,0,1-3.81-2.68,12.49,12.49,0,0,1,0-17.49,11.9,11.9,0,0,1,3.81-2.64A11.32,11.32,0,0,1,111.27,17.18Z"/><path class="cls-1" d="M146.09,17.18V22.1H131.66a2.26,2.26,0,0,0-1.7.71,2.45,2.45,0,0,0-.69,1.76,2.55,2.55,0,0,0,.69,1.8,2.25,2.25,0,0,0,1.7.74h9.57a6.75,6.75,0,0,1,2.8.58,7.25,7.25,0,0,1,2.28,1.57,7,7,0,0,1,1.55,2.34,7.76,7.76,0,0,1,0,5.79,7.12,7.12,0,0,1-1.55,2.36,7,7,0,0,1-2.28,1.6,6.75,6.75,0,0,1-2.8.58H126.87V37h14.36a2.44,2.44,0,0,0,1.77-.7,2.61,2.61,0,0,0,.68-1.83,2.45,2.45,0,0,0-.68-1.76,2.37,2.37,0,0,0-1.77-.71h-9.57a6.79,6.79,0,0,1-2.8-.59,6.67,6.67,0,0,1-2.25-1.59,7.65,7.65,0,0,1-2.08-5.27,7.52,7.52,0,0,1,.56-2.89,7.17,7.17,0,0,1,1.52-2.34,7.25,7.25,0,0,1,2.25-1.58,7,7,0,0,1,2.8-.58Z"/><path class="cls-1" d="M156.77,24.35a7.37,7.37,0,0,0-2.13,5.29,7.52,7.52,0,0,0,.75,3.26l1.94-2L160.1,28c1-1,1.91-2,2.82-2.9L165,23a6.92,6.92,0,0,0-8.25,1.38Zm11.87,8.87L172,36.7l-1.64,1.7a12.19,12.19,0,0,1-3.89,2.71,11.63,11.63,0,0,1-9.16,0,12.26,12.26,0,0,1-3.88-2.71,11.83,11.83,0,0,1-2.61-4.1,13.38,13.38,0,0,1-.85-4.66,13.12,13.12,0,0,1,.85-4.62,11.75,11.75,0,0,1,2.61-4.08,11.69,11.69,0,0,1,16.93,0L172,22.65,158.74,36.37a6.78,6.78,0,0,0,4.29.69,6.87,6.87,0,0,0,4-2.13Z"/><path class="cls-1" d="M188,17.18V22.1h-2.39a6.6,6.6,0,0,0-2.8.58,7,7,0,0,0-2.29,1.59,7.4,7.4,0,0,0-1.54,2.37,7.57,7.57,0,0,0-.56,2.9V41.93h-4.79V29.54a12.48,12.48,0,0,1,.93-4.83,12.19,12.19,0,0,1,2.59-3.91,11.77,11.77,0,0,1,3.83-2.64,11.18,11.18,0,0,1,4.63-1Z"/><path class="cls-1" d="M219.26,42H205.51a11.66,11.66,0,0,1-8.78-3.63,12.68,12.68,0,0,1-3.48-9.15,11.86,11.86,0,0,1,3.44-8.86A12.06,12.06,0,0,1,205.51,17h13.75v4.34H205.51a7.75,7.75,0,0,0-5.76,2.32,8.08,8.08,0,0,0-2.26,5.93,7.83,7.83,0,0,0,2.26,5.82,7.91,7.91,0,0,0,5.76,2.23h13.75Z"/><path class="cls-1" d="M259.62,42h-4.77l-3.53-17.5-8.16,16.14a2.5,2.5,0,0,1-2.28,1.65,2.69,2.69,0,0,1-2.49-1.68l-8.15-16.11L226.74,42h-4.81l5.46-22.94a3.36,3.36,0,0,1,.94-1.73,2.3,2.3,0,0,1,1.69-.73c.93,0,1.8.82,2.64,2.46l8.11,16.35,8.17-16.35c.83-1.64,1.7-2.46,2.63-2.46a2.47,2.47,0,0,1,1.72.76,3.81,3.81,0,0,1,.92,1.7Z"/><path class="cls-1" d="M290.23,34.28A7.2,7.2,0,0,1,287.77,40a8.71,8.71,0,0,1-5.89,2H263.33V37.64h18.55a5.57,5.57,0,0,0,3-.81,3.08,3.08,0,0,0,1.46-2.67,2.91,2.91,0,0,0-1.49-2.6,5.71,5.71,0,0,0-3-.77H270.42A8,8,0,0,1,265.11,29a6.42,6.42,0,0,1-2.28-5.12,6.39,6.39,0,0,1,2.28-5.09A7.94,7.94,0,0,1,270.42,17h18.34v4.34H270.42a3.21,3.21,0,0,0-2.06.7,2.32,2.32,0,0,0-.86,1.87,2.22,2.22,0,0,0,.86,1.87,3.24,3.24,0,0,0,2.06.66h11.46a8.55,8.55,0,0,1,5.89,2.08A7.36,7.36,0,0,1,290.23,34.28Z"/></g></g></svg>